<svg width="16" height="16" viewBox="0 0 16 16" fill="none" xmlns="http://www.w3.org/2000/svg">
<path d="M14 0H5C3.9 0 3 0.9 3 2V9C3 10.1 3.9 11 5 11H9L12.3 14.3C12.5 14.5 12.8 14.6 13 14.6C13.5 14.6 14 14.2 14 13.6V11C15.1 11 16 10.1 16 9V2C16 0.9 15.1 0 14 0ZM14 9C14 9 13.6 9 13 9C12.4 9 12 9.4 12 10V11.2L9.8 9H5V2H14V9Z" fill="#393B48"/>
<path d="M8 12H6H5.5L4 12.8V12H2V5C2 4.4 1.6 4 1 4C0.4 4 0 4.4 0 5V12C0 13.1 0.9 14 2 14V14.4C2 15 2.5 15.4 3 15.4C3.1 15.4 3.3 15.4 3.4 15.3L6 14H8C8.6 14 9 13.6 9 13C9 12.4 8.6 12 8 12Z" fill="#393B48"/>
</svg>
